<svg width="576" height="512" xmlns="http://www.w3.org/2000/svg" role="img" class="svg-inline--fa fa-star fa-w-18" data-icon="star" data-prefix="far" focusable="false" aria-hidden="true">

 <g>
  <title>Layer 1</title>
  <path id="svg_1" d="m528.09998,171.5l-146.09998,-21.3l-65.29999,-132.4c-11.70001,-23.6 -45.60001,-23.9 -57.39999,0l-65.30002,132.4l-146.1,21.3c-26.2,3.8 -36.7,36.10001 -17.7,54.60001l105.69999,103l-24.99999,145.5c-4.5,26.29999 23.2,45.99997 46.4,33.69998l130.7,-68.69998l130.70001,68.69998c23.19998,12.20001 50.89999,-7.39999 46.39999,-33.69998l-25,-145.5l105.69998,-103c19,-18.5 8.5,-50.8 -17.70001,-54.60001zm-139.49997,140.79999l23.70001,138.39999l-124.30002,-65.29999l-124.3,65.30002l23.7,-138.40002l-100.59999,-97.99998l139,-20.2l62.2,-126.00001l62.20001,126.00001l139,20.2l-100.60001,97.99998z" fill="#ffff00"/>
 </g>
</svg>